<?xml version="1.0" standalone="no"?>
<!DOCTYPE svg PUBLIC "-//W3C//DTD SVG 20010904//EN"
 "http://www.w3.org/TR/2001/REC-SVG-20010904/DTD/svg10.dtd">
<svg version="1.0" xmlns="http://www.w3.org/2000/svg"
 width="233.000000pt" height="171.000000pt" viewBox="0 0 233.000000 171.000000"
 preserveAspectRatio="xMidYMid meet">

<g transform="translate(0.000000,171.000000) scale(0.100000,-0.100000)"
fill="#000000" stroke="none">
<path d="M0 855 l0 -855 1165 0 1165 0 0 855 0 855 -1165 0 -1165 0 0 -855z
m1235 351 c116 -129 215 -235 222 -235 6 -1 107 105 224 234 l213 236 75 -3
76 -3 0 -570 0 -570 -105 0 -105 0 -5 352 -5 352 -157 -183 c-87 -100 -166
-190 -176 -200 -18 -16 -31 -2 -292 299 l-273 315 -306 2 -306 3 -3 103 -3
102 358 0 358 0 210 -234z m-141 -383 l78 -98 -324 -5 -323 -5 -5 -205 -5
-205 -95 0 -95 0 -3 295 c-1 162 0 300 3 307 3 10 81 13 348 13 l343 0 78 -97z"/>
</g>
</svg>
